<svg width="30" height="30" viewBox="0 0 30 30" fill="none" xmlns="http://www.w3.org/2000/svg">
<path d="M28.8673 12.3919L16.6305 12.3914C16.0902 12.3914 15.6522 12.8293 15.6522 13.3696V17.2787C15.6522 17.819 16.0902 18.257 16.6305 18.257H23.5215C22.7669 20.2153 21.3585 21.8552 19.5617 22.8973L22.5 27.9837C27.2134 25.2578 30 20.4748 30 15.1207C30 14.3583 29.9438 13.8133 29.8314 13.1997C29.746 12.7334 29.3412 12.3919 28.8673 12.3919Z" fill="#167EE6"/>
<path d="M15 24.1304C11.6277 24.1304 8.68371 22.2879 7.10255 19.5613L2.01627 22.493C4.60464 26.9791 9.45351 30 15 30C17.7209 30 20.2883 29.2674 22.5 27.9907V27.9837L19.5617 22.8972C18.2177 23.6767 16.6624 24.1304 15 24.1304Z" fill="#12B347"/>
<path d="M22.5 27.9907V27.9837L19.5617 22.8972C18.2177 23.6767 16.6625 24.1304 15 24.1304V30C17.7209 30 20.2884 29.2674 22.5 27.9907Z" fill="#0F993E"/>
<path d="M5.86957 15C5.86957 13.3377 6.3232 11.7826 7.10256 10.4386L2.01627 7.50696C0.732539 9.71166 0 12.2721 0 15C0 17.7279 0.732539 20.2883 2.01627 22.493L7.10256 19.5613C6.3232 18.2174 5.86957 16.6622 5.86957 15Z" fill="#FFD500"/>
<path d="M15 5.86957C17.1991 5.86957 19.219 6.65098 20.7968 7.95076C21.186 8.27139 21.7518 8.24824 22.1083 7.8917L24.878 5.12197C25.2826 4.71744 25.2537 4.05527 24.8216 3.68039C22.1781 1.38709 18.7387 0 15 0C9.45351 0 4.60464 3.02092 2.01627 7.50697L7.10255 10.4387C8.68371 7.71211 11.6277 5.86957 15 5.86957Z" fill="#FF4B26"/>
<path d="M20.7968 7.95076C21.186 8.27139 21.7518 8.24824 22.1083 7.8917L24.878 5.12197C25.2825 4.71744 25.2537 4.05527 24.8216 3.68039C22.1782 1.38703 18.7387 0 15 0V5.86957C17.199 5.86957 19.219 6.65098 20.7968 7.95076Z" fill="#D93F21"/>
</svg>
