<svg width="30" height="30" viewBox="0 0 30 30" fill="none" xmlns="http://www.w3.org/2000/svg">
<g clip-path="url(#clip0)">
<path d="M14.679 23.4865H16.4716C16.4716 23.4865 17.0135 23.4265 17.2892 23.1284C17.5442 22.8546 17.5348 22.3408 17.5348 22.3408C17.5348 22.3408 17.4992 19.935 18.6168 19.5806C19.7175 19.2318 21.1313 21.9058 22.6295 22.9352C23.7621 23.7134 24.6228 23.5428 24.6228 23.5428L28.63 23.4865C28.63 23.4865 30.7264 23.3571 29.7326 21.7089C29.6519 21.5739 29.1531 20.49 26.753 18.2624C24.2403 15.9297 24.5778 16.3085 27.6043 12.2751C29.4475 9.81863 30.1845 8.31852 29.9538 7.67722C29.7344 7.06593 28.3787 7.22719 28.3787 7.22719L23.8709 7.25344C23.8709 7.25344 23.5371 7.20844 23.2877 7.35657C23.0458 7.50283 22.8902 7.84036 22.8902 7.84036C22.8902 7.84036 22.1758 9.74175 21.2232 11.3581C19.2149 14.769 18.4105 14.949 18.0823 14.7371C17.3192 14.244 17.5104 12.7532 17.5104 11.6956C17.5104 8.38977 18.0111 7.01155 16.5335 6.65527C16.0422 6.53714 15.6822 6.45838 14.4277 6.44525C12.8188 6.42838 11.4556 6.45088 10.6849 6.82778C10.1711 7.07905 9.77548 7.63972 10.0174 7.6716C10.3155 7.71097 10.9906 7.85348 11.3487 8.34102C11.8119 8.96919 11.795 10.383 11.795 10.383C11.795 10.383 12.0613 14.274 11.1743 14.7577C10.5649 15.0896 9.73047 14.4127 7.93972 11.3169C7.02278 9.73237 6.32898 7.97912 6.32898 7.97912C6.32898 7.97912 6.19584 7.65284 5.9577 7.47846C5.66893 7.26657 5.2639 7.19906 5.2639 7.19906L0.977335 7.22531C0.977335 7.22531 0.334163 7.24406 0.0978952 7.52346C-0.11212 7.77285 0.081019 8.28664 0.081019 8.28664C0.081019 8.28664 3.43751 16.1378 7.23654 20.0963C10.7224 23.7247 14.679 23.4865 14.679 23.4865Z" fill="#1E88E5"/>
</g>
<defs>
<clipPath id="clip0">
<rect width="30" height="30" fill="white"/>
</clipPath>
</defs>
</svg>
