<svg width="194" height="30" viewBox="0 0 194 30" fill="none" xmlns="http://www.w3.org/2000/svg">
<g clip-path="url(#clip0)">
<path d="M17.2263 12.7738H11.0115L7.90407 18.3671L7.28263 18.9885C6.25097 20.0202 6.25097 21.6857 7.28263 22.7174C8.31423 23.749 9.97981 23.7491 11.0115 22.7174L11.633 22.096L17.2263 18.9886V12.7738ZM6.82554 16.7449C7.112 16.6903 7.35171 16.4979 7.46761 16.2302C8.11823 14.7275 9.5645 12.5117 11.3373 10.3031C11.517 10.0785 11.5758 9.78059 11.4939 9.50443C11.3261 8.93602 10.7801 8.8923 10.6679 8.8326C10.4949 8.77494 6.377 7.46461 2.31065 11.531C-0.761534 14.6031 0.991825 16.4269 1.0677 16.5028C1.41124 16.8463 1.96718 16.8463 2.31065 16.5028C3.3388 15.4747 5.01141 15.4747 6.03956 16.5028C6.24528 16.7085 6.53966 16.7989 6.82554 16.7449ZM20.4957 18.5062C20.2195 18.4243 19.9215 18.4831 19.697 18.6628C17.4114 20.4969 15.2544 21.9061 13.7772 22.5288C13.5077 22.6429 13.3123 22.8832 13.2558 23.1703C13.2005 23.4573 13.2904 23.7535 13.4974 23.9604C14.5255 24.9885 14.5255 26.6612 13.4974 27.6894C13.1538 28.0329 13.1538 28.5888 13.4974 28.9323C13.5732 29.0081 15.397 30.7615 18.4692 27.6894C22.5356 23.623 21.2252 19.5051 21.1676 19.3334C21.1106 19.2263 21.0628 18.6727 20.4957 18.5062ZM29.9044 0.841406C29.8423 0.456093 29.544 0.157793 29.1586 0.0955661C28.9349 0.0706637 25.6162 -0.364336 21.4647 0.853711L24.0346 5.90947L29.1462 8.53523C30.3643 4.38381 29.9293 1.06506 29.9044 0.841406ZM18.4692 6.55898C17.1019 7.92627 17.1019 10.1636 18.4692 11.5308C19.8489 12.9105 22.0738 12.8981 23.4411 11.5308C24.8207 10.1512 24.8207 7.93863 23.4411 6.55898C22.0738 5.1917 19.8489 5.17934 18.4692 6.55898Z" fill="url(#paint0_linear)"/>
<path d="M21.4648 0.853779C18.7427 1.63694 15.6726 3.14087 12.8759 5.93755C11.9561 6.85735 10.9493 7.98845 9.96734 9.19401C8.10288 11.5308 6.56164 13.8925 5.8656 15.5332C5.71642 15.8564 5.77859 16.2417 6.03962 16.5027L7.90408 18.3672L12.2544 14.0167C13.2861 12.9851 14.9516 12.9851 15.9833 14.0167C17.0274 15.0608 17.0274 16.7016 15.9833 17.7457L11.633 22.096L13.4974 23.9605C13.746 24.209 14.1313 24.296 14.4544 24.1469C16.0827 23.4633 18.3947 21.9717 20.806 20.0327C22.0116 19.0508 23.1428 18.044 24.0625 17.1242C26.8592 14.3275 28.3631 11.2575 29.1462 8.5353L21.4648 0.853779ZM23.4411 11.5308C22.0738 12.8981 19.8489 12.9105 18.4692 11.5308C17.1019 10.1636 17.1019 7.92628 18.4692 6.55899C19.8489 5.17935 22.0738 5.19171 23.4411 6.55899C24.8207 7.93864 24.8207 10.1512 23.4411 11.5308ZM6.05111 23.9612C5.70757 23.6177 5.15169 23.6177 4.80816 23.9612L0.257651 28.4994C-0.0858838 28.843 -0.0858838 29.3989 0.257651 29.7424C0.601187 30.0858 1.15712 30.0859 1.5006 29.7424L6.05111 25.2041C6.39464 24.8606 6.39464 24.3046 6.05111 23.9612ZM7.29406 26.4471L6.05111 27.69C5.70757 28.0335 5.70757 28.5895 6.05111 28.933C6.39464 29.2765 6.95058 29.2765 7.29406 28.933L8.53701 27.69C8.88054 27.3465 8.88054 26.7905 8.53701 26.4471C8.19347 26.1036 7.63759 26.1036 7.29406 26.4471ZM2.3222 23.9612L3.56515 22.7182C3.90869 22.3747 3.90869 21.8187 3.56515 21.4753C3.22162 21.1317 2.66568 21.1317 2.3222 21.4753L1.07925 22.7182C0.735718 23.0617 0.735718 23.6177 1.07925 23.9612C1.42279 24.3046 1.97873 24.3046 2.3222 23.9612Z" fill="url(#paint1_linear)"/>
</g>
<path d="M52.696 24L49.456 19.32H49.264H45.88V24H41.992V7.2H49.264C50.752 7.2 52.04 7.448 53.128 7.944C54.232 8.44 55.08 9.144 55.672 10.056C56.264 10.968 56.56 12.048 56.56 13.296C56.56 14.544 56.256 15.624 55.648 16.536C55.056 17.432 54.208 18.12 53.104 18.6L56.872 24H52.696ZM52.624 13.296C52.624 12.352 52.32 11.632 51.712 11.136C51.104 10.624 50.216 10.368 49.048 10.368H45.88V16.224H49.048C50.216 16.224 51.104 15.968 51.712 15.456C52.32 14.944 52.624 14.224 52.624 13.296ZM65.5204 24.192C64.1604 24.192 62.9364 23.912 61.8484 23.352C60.7764 22.776 59.9364 21.984 59.3284 20.976C58.7204 19.968 58.4164 18.824 58.4164 17.544C58.4164 16.264 58.7204 15.12 59.3284 14.112C59.9364 13.104 60.7764 12.32 61.8484 11.76C62.9364 11.184 64.1604 10.896 65.5204 10.896C66.8804 10.896 68.0964 11.184 69.1684 11.76C70.2404 12.32 71.0804 13.104 71.6884 14.112C72.2964 15.12 72.6004 16.264 72.6004 17.544C72.6004 18.824 72.2964 19.968 71.6884 20.976C71.0804 21.984 70.2404 22.776 69.1684 23.352C68.0964 23.912 66.8804 24.192 65.5204 24.192ZM65.5204 21.12C66.4804 21.12 67.2644 20.8 67.8724 20.16C68.4964 19.504 68.8084 18.632 68.8084 17.544C68.8084 16.456 68.4964 15.592 67.8724 14.952C67.2644 14.296 66.4804 13.968 65.5204 13.968C64.5604 13.968 63.7684 14.296 63.1444 14.952C62.5204 15.592 62.2084 16.456 62.2084 17.544C62.2084 18.632 62.5204 19.504 63.1444 20.16C63.7684 20.8 64.5604 21.12 65.5204 21.12ZM81.343 24.192C79.967 24.192 78.727 23.912 77.623 23.352C76.535 22.776 75.679 21.984 75.055 20.976C74.447 19.968 74.143 18.824 74.143 17.544C74.143 16.264 74.447 15.12 75.055 14.112C75.679 13.104 76.535 12.32 77.623 11.76C78.727 11.184 79.967 10.896 81.343 10.896C82.703 10.896 83.887 11.184 84.895 11.76C85.919 12.32 86.663 13.128 87.127 14.184L84.223 15.744C83.551 14.56 82.583 13.968 81.319 13.968C80.343 13.968 79.535 14.288 78.895 14.928C78.255 15.568 77.935 16.44 77.935 17.544C77.935 18.648 78.255 19.52 78.895 20.16C79.535 20.8 80.343 21.12 81.319 21.12C82.599 21.12 83.567 20.528 84.223 19.344L87.127 20.928C86.663 21.952 85.919 22.752 84.895 23.328C83.887 23.904 82.703 24.192 81.343 24.192ZM94.7329 18.936L92.9329 20.712V24H89.1889V6.192H92.9329V16.272L98.4049 11.088H102.869L97.4929 16.56L103.349 24H98.8129L94.7329 18.936ZM117.118 17.592C117.118 17.64 117.094 17.976 117.046 18.6H107.278C107.454 19.4 107.87 20.032 108.526 20.496C109.182 20.96 109.998 21.192 110.974 21.192C111.646 21.192 112.238 21.096 112.75 20.904C113.278 20.696 113.766 20.376 114.214 19.944L116.206 22.104C114.99 23.496 113.214 24.192 110.878 24.192C109.422 24.192 108.134 23.912 107.014 23.352C105.894 22.776 105.03 21.984 104.422 20.976C103.814 19.968 103.51 18.824 103.51 17.544C103.51 16.28 103.806 15.144 104.398 14.136C105.006 13.112 105.83 12.32 106.87 11.76C107.926 11.184 109.102 10.896 110.398 10.896C111.662 10.896 112.806 11.168 113.83 11.712C114.854 12.256 115.654 13.04 116.23 14.064C116.822 15.072 117.118 16.248 117.118 17.592ZM110.422 13.728C109.574 13.728 108.862 13.968 108.286 14.448C107.71 14.928 107.358 15.584 107.23 16.416H113.59C113.462 15.6 113.11 14.952 112.534 14.472C111.958 13.976 111.254 13.728 110.422 13.728ZM127.939 23.376C127.571 23.648 127.115 23.856 126.571 24C126.043 24.128 125.483 24.192 124.891 24.192C123.355 24.192 122.163 23.8 121.315 23.016C120.483 22.232 120.067 21.08 120.067 19.56V14.256H118.075V11.376H120.067V8.232H123.811V11.376H127.027V14.256H123.811V19.512C123.811 20.056 123.947 20.48 124.219 20.784C124.507 21.072 124.907 21.216 125.419 21.216C126.011 21.216 126.515 21.056 126.931 20.736L127.939 23.376ZM145.141 24.288C143.429 24.288 141.877 23.92 140.485 23.184C139.109 22.432 138.021 21.4 137.221 20.088C136.437 18.76 136.045 17.264 136.045 15.6C136.045 13.936 136.437 12.448 137.221 11.136C138.021 9.808 139.109 8.776 140.485 8.04C141.877 7.288 143.437 6.912 145.165 6.912C146.621 6.912 147.933 7.168 149.101 7.68C150.285 8.192 151.277 8.928 152.077 9.888L149.581 12.192C148.445 10.88 147.037 10.224 145.357 10.224C144.317 10.224 143.389 10.456 142.573 10.92C141.757 11.368 141.117 12 140.653 12.816C140.205 13.632 139.981 14.56 139.981 15.6C139.981 16.64 140.205 17.568 140.653 18.384C141.117 19.2 141.757 19.84 142.573 20.304C143.389 20.752 144.317 20.976 145.357 20.976C147.037 20.976 148.445 20.312 149.581 18.984L152.077 21.288C151.277 22.264 150.285 23.008 149.101 23.52C147.917 24.032 146.597 24.288 145.141 24.288ZM165.407 24L162.167 19.32H161.975H158.591V24H154.703V7.2H161.975C163.463 7.2 164.751 7.448 165.839 7.944C166.943 8.44 167.791 9.144 168.383 10.056C168.975 10.968 169.271 12.048 169.271 13.296C169.271 14.544 168.967 15.624 168.359 16.536C167.767 17.432 166.919 18.12 165.815 18.6L169.583 24H165.407ZM165.335 13.296C165.335 12.352 165.031 11.632 164.423 11.136C163.815 10.624 162.927 10.368 161.759 10.368H158.591V16.224H161.759C162.927 16.224 163.815 15.968 164.423 15.456C165.031 14.944 165.335 14.224 165.335 13.296ZM187.639 24L187.615 13.92L182.671 22.224H180.919L175.999 14.136V24H172.351V7.2H175.567L181.855 17.64L188.047 7.2H191.239L191.287 24H187.639Z" fill="url(#paint2_linear)"/>
<defs>
<linearGradient id="paint0_linear" x1="7.28366" y1="22.7132" x2="29.6505" y2="0.346364" gradientUnits="userSpaceOnUse">
<stop stop-color="#F6F6F6"/>
<stop offset="0.5028" stop-color="#4E9CD6"/>
<stop offset="1" stop-color="#EAF6FF"/>
</linearGradient>
<linearGradient id="paint1_linear" x1="0.259887" y1="29.737" x2="25.304" y2="4.69293" gradientUnits="userSpaceOnUse">
<stop stop-color="#DB1D78"/>
<stop offset="1" stop-color="#B8169E"/>
</linearGradient>
<linearGradient id="paint2_linear" x1="45.7037" y1="6.01923" x2="201.698" y2="38.626" gradientUnits="userSpaceOnUse">
<stop stop-color="#B8169E"/>
<stop offset="0.979167" stop-color="#7B0746"/>
</linearGradient>
<clipPath id="clip0">
<rect width="30" height="30" fill="white"/>
</clipPath>
</defs>
</svg>
